<svg width="1017" height="216" viewBox="0 0 1017 216" fill="none" xmlns="http://www.w3.org/2000/svg">
<path d="M105.37 109.804C107.614 110.901 107.614 114.099 105.37 115.196L60.0668 137.327C58.0739 138.301 55.75 136.85 55.75 134.632V90.3684C55.75 88.1503 58.0739 86.6992 60.0668 87.6728L105.37 109.804Z" stroke="#0F96DF" stroke-width="8"/>
<rect x="18" y="65" width="114" height="96" rx="19" stroke="#0F96DF" stroke-width="10"/>
<path d="M253.232 88.592C253.232 93.968 251.936 99.008 249.344 103.712C246.848 108.416 242.864 112.208 237.392 115.088C232.016 117.968 225.2 119.408 216.944 119.408H200.096V158H179.936V57.488H216.944C224.72 57.488 231.344 58.832 236.816 61.52C242.288 64.208 246.368 67.904 249.056 72.608C251.84 77.312 253.232 82.64 253.232 88.592ZM216.08 103.136C221.648 103.136 225.776 101.888 228.464 99.392C231.152 96.8 232.496 93.2 232.496 88.592C232.496 78.8 227.024 73.904 216.08 73.904H200.096V103.136H216.08ZM341.705 116.384C341.705 119.264 341.513 121.856 341.129 124.16H282.809C283.289 129.92 285.305 134.432 288.857 137.696C292.409 140.96 296.777 142.592 301.961 142.592C309.449 142.592 314.777 139.376 317.945 132.944H339.689C337.385 140.624 332.969 146.96 326.441 151.952C319.913 156.848 311.897 159.296 302.393 159.296C294.713 159.296 287.801 157.616 281.657 154.256C275.609 150.8 270.857 145.952 267.401 139.712C264.041 133.472 262.361 126.272 262.361 118.112C262.361 109.856 264.041 102.608 267.401 96.368C270.761 90.128 275.465 85.328 281.513 81.968C287.561 78.608 294.521 76.928 302.393 76.928C309.977 76.928 316.745 78.56 322.697 81.824C328.745 85.088 333.401 89.744 336.665 95.792C340.025 101.744 341.705 108.608 341.705 116.384ZM320.825 110.624C320.729 105.44 318.857 101.312 315.209 98.24C311.561 95.072 307.097 93.488 301.817 93.488C296.825 93.488 292.601 95.024 289.145 98.096C285.785 101.072 283.721 105.248 282.953 110.624H320.825ZM376.58 89.888C379.172 86.048 382.724 82.928 387.236 80.528C391.844 78.128 397.076 76.928 402.932 76.928C409.748 76.928 415.892 78.608 421.364 81.968C426.932 85.328 431.3 90.128 434.468 96.368C437.732 102.512 439.364 109.664 439.364 117.824C439.364 125.984 437.732 133.232 434.468 139.568C431.3 145.808 426.932 150.656 421.364 154.112C415.892 157.568 409.748 159.296 402.932 159.296C396.98 159.296 391.748 158.144 387.236 155.84C382.82 153.44 379.268 150.368 376.58 146.624V158H356.42V51.44H376.58V89.888ZM418.772 117.824C418.772 113.024 417.764 108.896 415.748 105.44C413.828 101.888 411.236 99.2 407.972 97.376C404.804 95.552 401.348 94.64 397.604 94.64C393.956 94.64 390.5 95.6 387.236 97.52C384.068 99.344 381.476 102.032 379.46 105.584C377.54 109.136 376.58 113.312 376.58 118.112C376.58 122.912 377.54 127.088 379.46 130.64C381.476 134.192 384.068 136.928 387.236 138.848C390.5 140.672 393.956 141.584 397.604 141.584C401.348 141.584 404.804 140.624 407.972 138.704C411.236 136.784 413.828 134.048 415.748 130.496C417.764 126.944 418.772 122.72 418.772 117.824ZM474.174 89.888C476.766 86.048 480.318 82.928 484.83 80.528C489.438 78.128 494.67 76.928 500.526 76.928C507.342 76.928 513.486 78.608 518.958 81.968C524.526 85.328 528.894 90.128 532.062 96.368C535.326 102.512 536.958 109.664 536.958 117.824C536.958 125.984 535.326 133.232 532.062 139.568C528.894 145.808 524.526 150.656 518.958 154.112C513.486 157.568 507.342 159.296 500.526 159.296C494.574 159.296 489.342 158.144 484.83 155.84C480.414 153.44 476.862 150.368 474.174 146.624V158H454.014V51.44H474.174V89.888ZM516.366 117.824C516.366 113.024 515.358 108.896 513.342 105.44C511.422 101.888 508.83 99.2 505.566 97.376C502.398 95.552 498.942 94.64 495.198 94.64C491.55 94.64 488.094 95.6 484.83 97.52C481.662 99.344 479.07 102.032 477.054 105.584C475.134 109.136 474.174 113.312 474.174 118.112C474.174 122.912 475.134 127.088 477.054 130.64C479.07 134.192 481.662 136.928 484.83 138.848C488.094 140.672 491.55 141.584 495.198 141.584C498.942 141.584 502.398 140.624 505.566 138.704C508.83 136.784 511.422 134.048 513.342 130.496C515.358 126.944 516.366 122.72 516.366 117.824ZM571.768 51.44V158H551.608V51.44H571.768ZM665.846 116.384C665.846 119.264 665.654 121.856 665.27 124.16H606.95C607.43 129.92 609.446 134.432 612.998 137.696C616.55 140.96 620.918 142.592 626.102 142.592C633.59 142.592 638.918 139.376 642.086 132.944H663.83C661.526 140.624 657.11 146.96 650.582 151.952C644.054 156.848 636.038 159.296 626.534 159.296C618.854 159.296 611.942 157.616 605.798 154.256C599.75 150.8 594.998 145.952 591.542 139.712C588.182 133.472 586.502 126.272 586.502 118.112C586.502 109.856 588.182 102.608 591.542 96.368C594.902 90.128 599.606 85.328 605.654 81.968C611.702 78.608 618.662 76.928 626.534 76.928C634.118 76.928 640.886 78.56 646.838 81.824C652.886 85.088 657.542 89.744 660.806 95.792C664.166 101.744 665.846 108.608 665.846 116.384ZM644.966 110.624C644.87 105.44 642.998 101.312 639.35 98.24C635.702 95.072 631.238 93.488 625.958 93.488C620.966 93.488 616.742 95.024 613.286 98.096C609.926 101.072 607.862 105.248 607.094 110.624H644.966ZM788.17 88.592C788.17 93.968 786.874 99.008 784.281 103.712C781.786 108.416 777.802 112.208 772.33 115.088C766.954 117.968 760.138 119.408 751.882 119.408H735.034V158H714.874V57.488H751.882C759.658 57.488 766.282 58.832 771.754 61.52C777.226 64.208 781.306 67.904 783.994 72.608C786.778 77.312 788.17 82.64 788.17 88.592ZM751.018 103.136C756.586 103.136 760.714 101.888 763.402 99.392C766.09 96.8 767.434 93.2 767.434 88.592C767.434 78.8 761.962 73.904 751.018 73.904H735.034V103.136H751.018ZM822.643 51.44V158H802.483V51.44H822.643ZM837.377 117.824C837.377 109.76 838.961 102.608 842.129 96.368C845.393 90.128 849.761 85.328 855.233 81.968C860.801 78.608 866.993 76.928 873.809 76.928C879.761 76.928 884.945 78.128 889.361 80.528C893.873 82.928 897.473 85.952 900.161 89.6V78.224H920.465V158H900.161V146.336C897.569 150.08 893.969 153.2 889.361 155.696C884.849 158.096 879.617 159.296 873.665 159.296C866.945 159.296 860.801 157.568 855.233 154.112C849.761 150.656 845.393 145.808 842.129 139.568C838.961 133.232 837.377 125.984 837.377 117.824ZM900.161 118.112C900.161 113.216 899.201 109.04 897.281 105.584C895.361 102.032 892.769 99.344 889.505 97.52C886.241 95.6 882.737 94.64 878.993 94.64C875.249 94.64 871.793 95.552 868.625 97.376C865.457 99.2 862.865 101.888 860.849 105.44C858.929 108.896 857.969 113.024 857.969 117.824C857.969 122.624 858.929 126.848 860.849 130.496C862.865 134.048 865.457 136.784 868.625 138.704C871.889 140.624 875.345 141.584 878.993 141.584C882.737 141.584 886.241 140.672 889.505 138.848C892.769 136.928 895.361 134.24 897.281 130.784C899.201 127.232 900.161 123.008 900.161 118.112ZM1016.47 78.224L967.083 195.728H945.627L962.907 155.984L930.939 78.224H953.547L974.139 133.952L995.019 78.224H1016.47Z" fill="#ECECEC"/>
</svg>
