<svg width="1082" height="216" viewBox="0 0 1082 216" fill="none" xmlns="http://www.w3.org/2000/svg">
<path d="M105.37 114.696L60.0668 136.827C58.0739 137.801 55.75 136.35 55.75 134.132V89.8684C55.75 87.6503 58.0739 86.1992 60.0668 87.1728L105.37 109.304C107.614 110.401 107.614 113.599 105.37 114.696Z" fill="#0F96DF" stroke="#0F96DF" stroke-width="8"/>
<rect x="18" y="64.5" width="114" height="96" rx="19" stroke="#0F96DF" stroke-width="10"/>
<path d="M275.232 88.592C275.232 93.968 273.936 99.008 271.344 103.712C268.848 108.416 264.864 112.208 259.392 115.088C254.016 117.968 247.2 119.408 238.944 119.408H222.096V158H201.936V57.488H238.944C246.72 57.488 253.344 58.832 258.816 61.52C264.288 64.208 268.368 67.904 271.056 72.608C273.84 77.312 275.232 82.64 275.232 88.592ZM238.08 103.136C243.648 103.136 247.776 101.888 250.464 99.392C253.152 96.8 254.496 93.2 254.496 88.592C254.496 78.8 249.024 73.904 238.08 73.904H222.096V103.136H238.08ZM363.705 116.384C363.705 119.264 363.513 121.856 363.129 124.16H304.809C305.289 129.92 307.305 134.432 310.857 137.696C314.409 140.96 318.777 142.592 323.961 142.592C331.449 142.592 336.777 139.376 339.945 132.944H361.689C359.385 140.624 354.969 146.96 348.441 151.952C341.913 156.848 333.897 159.296 324.393 159.296C316.713 159.296 309.801 157.616 303.657 154.256C297.609 150.8 292.857 145.952 289.401 139.712C286.041 133.472 284.361 126.272 284.361 118.112C284.361 109.856 286.041 102.608 289.401 96.368C292.761 90.128 297.465 85.328 303.513 81.968C309.561 78.608 316.521 76.928 324.393 76.928C331.977 76.928 338.745 78.56 344.697 81.824C350.745 85.088 355.401 89.744 358.665 95.792C362.025 101.744 363.705 108.608 363.705 116.384ZM342.825 110.624C342.729 105.44 340.857 101.312 337.209 98.24C333.561 95.072 329.097 93.488 323.817 93.488C318.825 93.488 314.601 95.024 311.145 98.096C307.785 101.072 305.721 105.248 304.953 110.624H342.825ZM398.58 89.888C401.172 86.048 404.724 82.928 409.236 80.528C413.844 78.128 419.076 76.928 424.932 76.928C431.748 76.928 437.892 78.608 443.364 81.968C448.932 85.328 453.3 90.128 456.468 96.368C459.732 102.512 461.364 109.664 461.364 117.824C461.364 125.984 459.732 133.232 456.468 139.568C453.3 145.808 448.932 150.656 443.364 154.112C437.892 157.568 431.748 159.296 424.932 159.296C418.98 159.296 413.748 158.144 409.236 155.84C404.82 153.44 401.268 150.368 398.58 146.624V158H378.42V51.44H398.58V89.888ZM440.772 117.824C440.772 113.024 439.764 108.896 437.748 105.44C435.828 101.888 433.236 99.2 429.972 97.376C426.804 95.552 423.348 94.64 419.604 94.64C415.956 94.64 412.5 95.6 409.236 97.52C406.068 99.344 403.476 102.032 401.46 105.584C399.54 109.136 398.58 113.312 398.58 118.112C398.58 122.912 399.54 127.088 401.46 130.64C403.476 134.192 406.068 136.928 409.236 138.848C412.5 140.672 415.956 141.584 419.604 141.584C423.348 141.584 426.804 140.624 429.972 138.704C433.236 136.784 435.828 134.048 437.748 130.496C439.764 126.944 440.772 122.72 440.772 117.824ZM496.174 89.888C498.766 86.048 502.318 82.928 506.83 80.528C511.438 78.128 516.67 76.928 522.526 76.928C529.342 76.928 535.486 78.608 540.958 81.968C546.526 85.328 550.894 90.128 554.062 96.368C557.326 102.512 558.958 109.664 558.958 117.824C558.958 125.984 557.326 133.232 554.062 139.568C550.894 145.808 546.526 150.656 540.958 154.112C535.486 157.568 529.342 159.296 522.526 159.296C516.574 159.296 511.342 158.144 506.83 155.84C502.414 153.44 498.862 150.368 496.174 146.624V158H476.014V51.44H496.174V89.888ZM538.366 117.824C538.366 113.024 537.358 108.896 535.342 105.44C533.422 101.888 530.83 99.2 527.566 97.376C524.398 95.552 520.942 94.64 517.198 94.64C513.55 94.64 510.094 95.6 506.83 97.52C503.662 99.344 501.07 102.032 499.054 105.584C497.134 109.136 496.174 113.312 496.174 118.112C496.174 122.912 497.134 127.088 499.054 130.64C501.07 134.192 503.662 136.928 506.83 138.848C510.094 140.672 513.55 141.584 517.198 141.584C520.942 141.584 524.398 140.624 527.566 138.704C530.83 136.784 533.422 134.048 535.342 130.496C537.358 126.944 538.366 122.72 538.366 117.824ZM593.768 51.44V158H573.608V51.44H593.768ZM687.846 116.384C687.846 119.264 687.654 121.856 687.27 124.16H628.95C629.43 129.92 631.446 134.432 634.998 137.696C638.55 140.96 642.918 142.592 648.102 142.592C655.59 142.592 660.918 139.376 664.086 132.944H685.83C683.526 140.624 679.11 146.96 672.582 151.952C666.054 156.848 658.038 159.296 648.534 159.296C640.854 159.296 633.942 157.616 627.798 154.256C621.75 150.8 616.998 145.952 613.542 139.712C610.182 133.472 608.502 126.272 608.502 118.112C608.502 109.856 610.182 102.608 613.542 96.368C616.902 90.128 621.606 85.328 627.654 81.968C633.702 78.608 640.662 76.928 648.534 76.928C656.118 76.928 662.886 78.56 668.838 81.824C674.886 85.088 679.542 89.744 682.806 95.792C686.166 101.744 687.846 108.608 687.846 116.384ZM666.966 110.624C666.87 105.44 664.998 101.312 661.35 98.24C657.702 95.072 653.238 93.488 647.958 93.488C642.966 93.488 638.742 95.024 635.286 98.096C631.926 101.072 629.862 105.248 629.094 110.624H666.966ZM810.17 88.592C810.17 93.968 808.874 99.008 806.281 103.712C803.786 108.416 799.802 112.208 794.33 115.088C788.954 117.968 782.138 119.408 773.882 119.408H757.034V158H736.874V57.488H773.882C781.658 57.488 788.282 58.832 793.754 61.52C799.226 64.208 803.306 67.904 805.994 72.608C808.778 77.312 810.17 82.64 810.17 88.592ZM773.018 103.136C778.586 103.136 782.714 101.888 785.402 99.392C788.09 96.8 789.434 93.2 789.434 88.592C789.434 78.8 783.962 73.904 773.018 73.904H757.034V103.136H773.018ZM844.643 51.44V158H824.483V51.44H844.643ZM859.377 117.824C859.377 109.76 860.961 102.608 864.129 96.368C867.393 90.128 871.761 85.328 877.233 81.968C882.801 78.608 888.993 76.928 895.809 76.928C901.761 76.928 906.945 78.128 911.361 80.528C915.873 82.928 919.473 85.952 922.161 89.6V78.224H942.465V158H922.161V146.336C919.569 150.08 915.969 153.2 911.361 155.696C906.849 158.096 901.617 159.296 895.665 159.296C888.945 159.296 882.801 157.568 877.233 154.112C871.761 150.656 867.393 145.808 864.129 139.568C860.961 133.232 859.377 125.984 859.377 117.824ZM922.161 118.112C922.161 113.216 921.201 109.04 919.281 105.584C917.361 102.032 914.769 99.344 911.505 97.52C908.241 95.6 904.737 94.64 900.993 94.64C897.249 94.64 893.793 95.552 890.625 97.376C887.457 99.2 884.865 101.888 882.849 105.44C880.929 108.896 879.969 113.024 879.969 117.824C879.969 122.624 880.929 126.848 882.849 130.496C884.865 134.048 887.457 136.784 890.625 138.704C893.889 140.624 897.345 141.584 900.993 141.584C904.737 141.584 908.241 140.672 911.505 138.848C914.769 136.928 917.361 134.24 919.281 130.784C921.201 127.232 922.161 123.008 922.161 118.112ZM1038.47 78.224L989.083 195.728H967.627L984.907 155.984L952.939 78.224H975.547L996.139 133.952L1017.02 78.224H1038.47Z" fill="#333333"/>
</svg>
